<?xml version="1.0" encoding="UTF-8" standalone="no"?>
<!-- Created with Inkscape (http://www.inkscape.org/) -->

<svg
   version="1.1"
   id="svg840"
   width="3000"
   height="3000"
   viewBox="0 0 3000 3000"
   sodipodi:docname="fahrrad version 5.svg"
   inkscape:version="1.1 (c4e8f9e, 2021-05-24)"
   inkscape:export-filename="/Users/manoel/Desktop/fahrrad version 5.png"
   inkscape:export-xdpi="99.997414"
   inkscape:export-ydpi="99.997414"
   xmlns:inkscape="http://www.inkscape.org/namespaces/inkscape"
   xmlns:sodipodi="http://sodipodi.sourceforge.net/DTD/sodipodi-0.dtd"
   xmlns="http://www.w3.org/2000/svg"
   xmlns:svg="http://www.w3.org/2000/svg">
  <defs
     id="defs844" />
  <sodipodi:namedview
     id="namedview842"
     pagecolor="#ffffff"
     bordercolor="#666666"
     borderopacity="1.0"
     inkscape:pageshadow="2"
     inkscape:pageopacity="0.0"
     inkscape:pagecheckerboard="0"
     showgrid="true"
     inkscape:zoom="0.16061395"
     inkscape:cx="74.713312"
     inkscape:cy="1733.9714"
     inkscape:window-width="1920"
     inkscape:window-height="976"
     inkscape:window-x="0"
     inkscape:window-y="25"
     inkscape:window-maximized="0"
     inkscape:current-layer="layer1"
     height="2200px"
     width="2500px">
    <inkscape:grid
       type="xygrid"
       id="grid12083" />
  </sodipodi:namedview>
  <g
     inkscape:groupmode="layer"
     id="layer1"
     inkscape:label="hintergrund">
    <rect
       style="fill:#f4e3d7;stroke:none;stroke-linecap:round;stroke-linejoin:round;paint-order:markers fill stroke;fill-opacity:1"
       id="rect915"
       width="3000"
       height="3000"
       x="0"
       y="0"
       ry="40"
       rx="0" />
  </g>
  <g
     inkscape:groupmode="layer"
     inkscape:label="Image"
     id="g846"
     style="display:inline"
     sodipodi:insensitive="true">
    <circle
       style="fill:none;fill-opacity:1;stroke:#4d4d4d;stroke-width:53.5688;stroke-linecap:round;stroke-linejoin:bevel;stroke-miterlimit:4;stroke-dasharray:none;stroke-opacity:1;paint-order:stroke fill markers"
       id="path10204"
       cx="2510.5496"
       cy="1691.4297"
       r="420.42511" />
    <circle
       style="display:inline;fill:none;fill-opacity:1;stroke:#4d4d4d;stroke-width:53.5688;stroke-linecap:round;stroke-linejoin:bevel;stroke-miterlimit:4;stroke-dasharray:none;stroke-opacity:1;paint-order:stroke fill markers"
       id="path10204-7"
       cx="1477.8003"
       cy="1691.3381"
       r="420.42511" />
    <path
       style="display:inline;fill:none;stroke:#4d4d4d;stroke-width:53.5688;stroke-linecap:round;stroke-linejoin:miter;stroke-miterlimit:4;stroke-dasharray:none;stroke-opacity:1"
       d="m 2528.7534,1699.87 -41.6512,-141.6141 -270.7328,-462.3285 8.3303,-249.9072 137.4489,-66.6419"
       id="path10675" />
    <ellipse
       style="display:inline;fill:#4d4d4d;fill-opacity:1;stroke:#4d4d4d;stroke-width:53.5688;stroke-linecap:round;stroke-linejoin:bevel;stroke-miterlimit:4;stroke-dasharray:none;stroke-opacity:1;paint-order:stroke fill markers"
       id="path10779"
       cx="2528.5591"
       cy="1700.9971"
       rx="6.5731468"
       ry="6.5731502" />
    <ellipse
       style="display:inline;fill:#4d4d4d;fill-opacity:1;stroke:#4d4d4d;stroke-width:4.2855;stroke-linecap:round;stroke-linejoin:bevel;stroke-miterlimit:4;stroke-dasharray:none;stroke-opacity:1;paint-order:stroke fill markers"
       id="path10779-7"
       cx="1465.344"
       cy="1680.9253"
       rx="6.5731468"
       ry="6.5731502" />
    <path
       style="fill:none;stroke:#4d4d4d;stroke-width:53.5688;stroke-linecap:butt;stroke-linejoin:miter;stroke-miterlimit:4;stroke-dasharray:none;stroke-opacity:1"
       d="M 1467.5327,1675.809 2310,1258 l -835.618,-3.4247 z"
       id="path11417" />
    <path
       style="fill:none;stroke:#4d4d4d;stroke-width:53.5688;stroke-linecap:butt;stroke-linejoin:miter;stroke-miterlimit:4;stroke-dasharray:none;stroke-opacity:1"
       d="M 1475.0323,1252.6156 V 1197.087"
       id="path11532"
       sodipodi:nodetypes="cc" />
    <path
       style="fill:none;stroke:#4d4d4d;stroke-width:53.5688;stroke-linecap:round;stroke-linejoin:miter;stroke-miterlimit:4;stroke-dasharray:none;stroke-opacity:1"
       d="m 1286.0896,1171.3238 283.8194,-1.2448"
       id="path11647" />
    <path
       style="display:inline;fill:none;stroke:#4d4d4d;stroke-width:53.5688;stroke-linecap:butt;stroke-linejoin:miter;stroke-miterlimit:4;stroke-dasharray:none;stroke-opacity:1"
       d="m 990,1678 477.5327,-2.191"
       id="path11647-8"
       sodipodi:nodetypes="cc" />
    <path
       style="fill:none;stroke:#4d4d4d;stroke-width:50;stroke-linecap:round;stroke-linejoin:bevel;stroke-miterlimit:4;stroke-dasharray:none;paint-order:stroke fill markers"
       id="path1225"
       sodipodi:type="arc"
       sodipodi:cx="552.11932"
       sodipodi:cy="1679.1973"
       sodipodi:rx="417.75262"
       sodipodi:ry="417.75262"
       sodipodi:start="0.18087057"
       sodipodi:end="2.6802304"
       sodipodi:arc-type="arc"
       d="M 963.05734,1754.3451 A 417.75262,417.75262 0 0 1 610.51552,2092.8483 417.75262,417.75262 0 0 1 178.04403,1865.1675"
       sodipodi:open="true" />
    <path
       style="fill:#4d4d4d;fill-opacity:1;stroke:#4d4d4d;stroke-width:1.86205;stroke-linecap:round;stroke-linejoin:bevel;stroke-miterlimit:4;stroke-dasharray:none;stroke-opacity:1;paint-order:stroke fill markers"
       d="m 286.1525,1942.8771 c -3.5917,-3.2065 -5.8751,-9.1712 -10.2791,-26.858 -6.7809,-27.2328 -15.2579,-54.1597 -21.3912,-67.943 L 250,1838 l -4.5146,5.4967 c -4.8501,5.9034 -25.6647,47.4638 -30.9989,61.8945 -3.6553,9.8878 -11.8029,17.7922 -18.3391,17.7922 -14.2342,0 -43.2063,-43.1668 -52.2536,-77.8555 -7.5405,-28.9079 -6.7182,-72.3489 2.0156,-106.4981 1.9838,-7.7531 3.3777,-14.3248 3.0986,-14.604 -1.1431,-1.1433 -34.6369,15.8992 -51.9771,26.445 -19.7415,12.0058 -25.9263,13.504 -31.7411,7.6892 -5.5567,-5.5568 -6.1369,-11.2954 -2.7249,-26.9122 7.1619,-32.781 22.5501,-73.3707 44.2325,-116.675 6.4859,-12.9535 11.4085,-23.9353 10.9388,-24.4061 -0.467,-0.467 -9.5808,1.2501 -20.2454,3.8201 -21.0655,5.0761 -25.8933,4.6312 -31.1465,-2.8688 -4.3055,-6.1454 -3.6246,-12.9558 2.8466,-28.5001 16.2608,-39.0604 52.2559,-73.738 97.7925,-94.2122 7.5161,-3.3788 13.4598,-6.6322 13.209,-7.2283 -0.246,-0.59 -9.1112,-8.0174 -19.6899,-16.4895 -19.5683,-15.6709 -21.7475,-18.8653 -19.3607,-28.376 2.2579,-8.9981 20.3956,-13.9969 66.3095,-18.2766 38.7002,-3.6061 53.4777,-6.5952 68.0964,-13.7768 9.8917,-4.8586 13.5372,-8.2017 25.4852,-23.3699 33.5822,-42.6298 42.1847,-52.5203 53.5208,-61.5307 22.3794,-17.7874 32.9052,-21.3997 40.431,-13.874 3.1979,3.1981 3.6639,6.1061 3.6639,22.8992 0,10.5788 0.3565,19.234 0.7988,19.234 0.4424,0 7.0881,-4.5071 14.7674,-10.0171 25.4324,-18.2483 56.0143,-31.0615 85.1821,-35.6927 16.2513,-2.5811 31.6185,-2.398 35.4754,0.4178 2.4198,1.7699 7.3083,1.9764 20.0425,0.8481 38.983,-3.4562 78.4211,4.4948 93.9003,18.9305 5.3046,4.947 7.0019,4.4579 10.5788,-3.0433 7.6285,-15.9966 30.9986,-35.3056 58.9886,-48.7358 14.0154,-6.7256 15.9918,-7.2185 20.8528,-5.2053 7.0193,2.9081 10.156,6.6839 12.984,15.6292 1.2746,4.0301 5.0098,12.7149 8.3001,19.2991 l 5.9833,11.9726 19.6751,-2.6819 c 59.4916,-8.107 83.952,19.2537 71.4718,79.9523 l -3.1071,15.1142 6.3111,7.7838 c 8.0863,9.974 16.808,25.7764 19.7135,35.7198 1.2515,4.2822 2.9882,7.7863 3.8571,7.7863 0.8726,0 4.7712,-5.1524 8.6697,-11.4502 10.7559,-17.3757 15.531,-21.8655 22.528,-21.1822 7.4804,0.7252 13.4993,9.1396 22.5219,31.4684 8.7131,21.5632 14.8637,47.6654 17.548,74.4792 1.2043,12.0685 2.7099,21.943 3.3366,21.943 0.627,0 5.2496,-2.7483 10.2742,-6.1061 16.7882,-11.2241 33.2479,-19.5401 38.672,-19.5401 6.7415,0 12.6943,4.0941 16.4158,11.2929 3.7843,7.3167 2.5614,16.6283 -6.9368,52.8237 -8.23,31.3603 -14.576,47.1234 -24.3129,60.3865 -3.5533,4.8403 -6.4602,10.5654 -6.4602,12.7223 0,4.2539 9.5685,24.3137 19.3423,40.5514 11.3644,18.88 12.8711,54.6121 2.8393,67.3566 -9.7368,12.3733 -14.6752,16.8275 -18.6539,16.8275 -2.2455,0 -15.2024,-6.1824 -28.794,-13.7388 -13.5923,-7.5564 -25.5095,-13.7401 -26.4829,-13.7401 -0.9711,0 -1.3077,1.8548 -0.7377,4.1225 7.9622,31.8149 8.7032,136.1352 1.0324,145.3755 -1.1675,1.4023 -5.4066,2.5505 -9.4294,2.5505 -8.4121,0 -11.6848,-2.9952 -29.8202,-27.2859 -11.4022,-15.2727 -14.9152,-18.257 -11.7784,-10.0048 2.1976,5.7778 -0.381,15.1682 -5.4153,19.7231 -7.2209,6.5353 -51.2777,16.3693 -86.9202,19.4 -39.5937,3.3676 -82.0378,-2.7604 -111.4315,-16.0875 l -12.1914,-5.5285 -1.1924,4.8538 c -4.2819,17.3893 -30.3029,48.817 -46.3746,56.0096 -12.4913,5.59 -16.0323,3.3002 -27.1923,-17.582 -5.1832,-9.7002 -12.752,-22.5368 -16.8202,-28.5262 -7.7987,-11.4845 -25.9536,-32.2304 -27.1543,-31.0308 -1.1921,1.1924 4.8267,40.4421 6.7279,43.8197 6.3692,11.3186 -2.383,24.6738 -17.8376,27.2169 -33.0734,5.4398 -79.9585,-1.9984 -112.2689,-17.813 -14.3938,-7.0454 -19.9886,-11.1248 -32.3569,-23.5924 l -14.9531,-15.0749 -8.8619,12.9828 c -18.1387,26.5766 -61.1335,63.4763 -73.9617,63.4763 -2.8723,0 -7.3006,-1.8546 -9.8402,-4.1211 z m 226.0737,-53.3301 c 0,-0.369 -2.3698,-5.9293 -5.2655,-12.3645 -7.6091,-16.9149 -11.2337,-33.5716 -11.1416,-51.2064 0.1476,-27.3596 4.4764,-38.3528 15.1266,-38.3528 9.7602,0 66.6755,49.5091 82.7999,72.0275 4.03,5.6277 7.9203,10.2713 8.6455,10.3204 2.4878,0.1729 16.0863,-46.6316 19.5841,-67.3997 3.8928,-23.108 7.6122,-29.6037 16.9467,-29.6037 4.0624,0 8.7931,3.6392 22.3412,17.1877 36.5421,36.5419 74.3611,56.1815 113.8397,59.1155 l 14.6557,1.0939 -9.3894,-9.8437 c -15.2148,-15.9513 -22.3164,-31.3802 -26.3442,-57.2302 -2.5331,-16.2622 -0.3934,-19.9541 14.2196,-24.4575 7.8696,-2.4278 16.7573,-3.245 35.2529,-3.2414 22.9702,0 25.8538,0.4057 40.5167,5.6428 20.0096,7.147 38.1067,19.1591 53.5871,35.5688 l 12.1458,12.871 v -14.2317 c 0,-29.6001 -9.5805,-71.0831 -21.1662,-91.8597 -2.4581,-4.4087 -4.4685,-9.5009 -4.4685,-11.3162 0,-5.1498 8.7202,-11.0533 14.4171,-9.759 12.8328,2.9142 45.0999,14.5819 60.5178,21.8852 9.4775,4.4887 17.6323,7.7593 18.1231,7.2687 0.4913,-0.4916 0,-5.5739 -1.2047,-11.2966 -3.6087,-17.9693 -21.2633,-36.9797 -45.7223,-49.2325 -10.6032,-5.3109 -12.3241,-7.694 -10.5785,-14.6482 0.897,-3.594 4.7836,-6.2956 18.059,-12.5711 19.9026,-9.4088 31.3208,-17.4199 35.0177,-24.5708 3.9604,-7.6572 10.6159,-28.1634 9.5036,-29.277 -0.5286,-0.5285 -6.5498,1.5279 -13.3737,4.5748 -15.3565,6.8583 -37.9592,13.3061 -46.6463,13.3061 -10.9011,0 -11.5647,-2.2517 -8.7883,-29.8485 2.8196,-28.0122 3.2473,-54.9821 1.18,-74.6586 -1.9629,-18.7314 -3.2864,-20.4754 -9.5697,-12.5969 -8.4623,10.6119 -41.7508,42.1639 -46.4719,44.0469 -5.2923,2.1115 -13.9158,-0.8358 -15.6451,-5.3392 -0.6268,-1.6236 -0.1708,-10.6415 1.0203,-20.0379 2.8364,-22.539 1.4833,-65.4994 -2.2874,-72.6269 l -2.7901,-5.2728 -5.8454,11.6849 c -3.2166,6.4269 -8.268,15.875 -11.2269,20.9953 -5.248,9.0805 -5.3979,10.0528 -6.0959,39.3863 -0.7744,32.5487 -3.1809,46.8443 -12.409,73.722 -3.0643,8.922 -5.3008,16.4366 -4.9728,16.6997 3.5177,2.8157 24.3272,10.6169 30.6212,11.4796 4.4593,0.6146 9.6265,2.6303 11.4823,4.4863 4.806,4.8058 4.3607,14.8486 -0.9339,21.0002 -4.1249,4.7947 -5.1034,5.022 -23.3565,5.4092 -49.0702,1.0448 -79.8811,13.863 -145.3524,60.4933 -6.9061,4.9201 -10.1704,6.1775 -13.7386,5.2927 -8.4437,-2.0945 -12.42,-7.6932 -14.7208,-20.7336 -1.1799,-6.7171 -2.4765,-13.2412 -2.8675,-14.4986 -0.9953,-3.1906 -32.1885,8.1429 -49.1918,17.8699 -7.2407,4.1432 -19.1442,12.8414 -26.4524,19.3312 -8.804,7.8157 -14.8327,11.7968 -17.8663,11.7968 -5.6155,0 -12.9827,-7.0426 -14.6849,-14.0387 -0.6884,-2.8577 -2.3773,-6.8216 -3.7376,-8.809 -3.2229,-4.7048 -3.1221,-10.0601 0.4546,-24.3286 1.6114,-6.4282 2.5173,-12.1002 2.0122,-12.6054 -2.5469,-2.5466 -51.1808,31.311 -79.6981,55.4836 -9.2662,7.8551 -12.8502,9.7945 -18.1008,9.7945 -5.8924,0 -8.1944,-1.7402 -23.0233,-17.4035 -9.0634,-9.5714 -17.0732,-17.4032 -17.8022,-17.4032 -0.7252,0 -2.8381,3.3581 -4.6879,7.4606 -3.6476,8.0887 -8.8295,12.6906 -14.2915,12.6906 -1.9029,0 -11.0903,-2.8576 -20.4151,-6.3508 -22.1213,-8.2854 -40.2823,-13.241 -70.4394,-19.2243 -26.8483,-5.3256 -29.7342,-7.0647 -26.5545,-16.0041 1.5019,-4.2243 1.0939,-6.2277 -2.334,-11.3051 -4.3782,-6.492 -4.0279,-9.9864 0.9094,-9.0361 1.6188,0.3072 4.9176,-1.4074 7.3318,-3.8213 4.1727,-4.1728 5.2099,-4.3363 21.1572,-3.3297 13.8779,0.8726 39.599,6.1112 56.7399,11.5522 3.4279,1.0818 3.3518,0.6023 -1.0939,-6.9774 -14.7539,-25.1743 -24.2388,-48.2492 -30.7163,-74.7275 -3.3773,-13.8015 -4.2623,-22.5206 -4.2796,-42.1332 0,-22.2392 0.4794,-26.1882 4.9902,-39.1871 9.2081,-26.5594 25.3661,-45.1322 49.4954,-56.8921 10.5603,-5.1475 11.9453,-6.3274 8.6525,-7.3734 -6.9588,-2.2086 -9.5349,-8.8469 -10.6436,-27.4209 -0.5778,-9.6312 -1.5697,-17.5109 -2.2113,-17.5109 -2.1766,0 -26.2668,24.6801 -33.0807,33.8909 -3.7266,5.0368 -10.8052,16.1662 -15.7276,24.7305 -4.9236,8.5643 -9.7922,16.1761 -10.8196,16.9172 -3.4501,2.4853 -8.2485,1.4319 -12.3954,-2.7199 -3.8287,-3.8336 -5.977,-4.163 -30.6843,-4.6988 -14.6127,-0.3196 -28.4962,0.1352 -30.8514,1.0201 -4.0377,1.502 -3.386,2.3636 11.3421,15.0072 16.482,14.1493 17.6718,15.7495 17.6718,23.7694 0,6.6568 -5.0553,11.0126 -23.4325,20.1841 -24.4628,12.2098 -53.5478,30.1213 -73.7615,45.426 -24.0005,18.172 -24.5313,18.617 -23.4769,19.6715 0.4795,0.4917 12.677,-0.3564 27.0917,-1.8719 14.416,-1.5142 27.7885,-2.2516 29.7169,-1.6396 5.0923,1.6163 9.4408,9.0855 7.9756,13.6995 -0.6759,2.1373 -4.8117,8.2804 -9.1861,13.6503 -24.1456,29.6444 -46.3466,62.557 -58.345,86.4961 -6.4048,12.7777 -16.1454,37.4762 -15.1658,38.4557 0.4303,0.4302 7.8257,-3.2485 16.4293,-8.1819 23.4719,-13.4589 53.71,-26.5005 58.1643,-25.0873 2.06,0.6515 5.0578,3.938 6.6604,7.2995 2.7335,5.7337 2.5995,8.0128 -2.173,36.9391 -8.7144,52.8168 -8.09,106.1173 1.5129,129.3153 l 2.4557,5.9315 7.8356,-15.5713 c 15.6831,-31.1683 41.7792,-66.6843 50.6286,-68.9052 8.6441,-2.1695 13.3283,1.9506 20.9314,18.408 9.9459,21.5262 19.3029,50.3792 22.952,70.7685 1.701,9.5058 3.4022,18.3713 3.7783,19.7013 0.9832,3.4672 20.3673,-12.2012 36.3071,-29.3449 7.2138,-7.7568 18.4328,-22.3386 24.9335,-32.4047 13.1941,-20.4299 18.1955,-24.165 27.3005,-20.393 4.4112,1.8265 7.5059,6.502 16.82,25.4102 10.0898,20.4852 13.1281,24.8816 26.1943,37.9123 12.0242,11.9923 18.0271,16.3335 32.184,23.2814 18.1781,8.9196 49.4612,18.633 49.4612,15.3561 z m -70.7831,-259.5077 c 4.8978,-6.0593 15.5821,-16.3604 23.7435,-22.8906 27.2672,-21.8163 56.6894,-33.0489 91.921,-35.0929 16.4405,-0.9587 18.7718,-0.6883 22.7456,2.5491 6.6248,5.4044 5.7252,12.6719 -3.348,27.0388 -8.3271,13.1832 -15.8344,29.1354 -13.2408,28.1313 6.8556,-2.6535 40.5152,-21.0605 40.534,-22.1667 0,-2.8919 -20.2101,-41.4424 -31.6858,-60.3015 -36.7231,-60.3495 -77.9049,-97.6635 -119.754,-108.5078 -31.1772,-8.0788 -70.223,0.6883 -89.6783,20.1485 -24.8139,24.8141 -29.3258,69.8369 -12.4065,123.8172 5.5077,17.5736 11.6692,32.662 13.3357,32.6583 0.627,-10e-4 3.9579,-6.25 7.3905,-13.8863 6.9531,-15.4644 12.0758,-20.1694 19.8488,-18.2287 7.6693,1.9138 10.9854,5.832 18.5639,21.9381 7.4215,15.7692 19.6348,35.8304 21.8079,35.8181 0.7251,0 5.3246,-4.9643 10.2225,-11.0249 z m 262.0296,-20.9375 c 16.1218,-12.1594 31.6381,-21.7119 44.4293,-27.3535 6.5544,-2.892 8.3625,-5.0343 13.0922,-15.5233 12.1889,-27.0265 17.2734,-51.6366 17.276,-83.6126 0,-36.3909 -6.8104,-58.1864 -23.9008,-76.4568 -11.0203,-11.7821 -20.3085,-16.3948 -35.1398,-17.4506 -30.1227,-2.146 -69.9032,21.2301 -122.4335,71.9423 l -21.0543,20.3255 9.1825,13.6429 c 19.7343,29.3212 33.4228,59.6502 40.0561,88.7513 1.8361,8.0604 3.542,14.9433 3.7893,15.2948 0.246,0.3566 7.7186,-1.0078 16.6025,-3.0235 27.8021,-6.3052 30.8439,-6.4417 36.4427,-1.6261 5.3193,4.576 6.2645,10.0404 3.8137,22.051 -1.6716,8.1932 -2.8663,8.659 17.8441,-6.9614 z M 570.9265,1449.1799 c 17.3398,-21.6627 37.766,-43.5823 50.9752,-54.7019 7.0487,-5.9328 12.8708,-11.5276 12.9387,-12.431 0.1352,-1.7711 -6.0375,-9.7258 -26.3283,-33.9475 -14.9703,-17.8709 -31.927,-31.2729 -39.5657,-31.2729 -4.9092,0 -12.7553,7.0058 -12.7553,11.3887 0,3.0863 -10.4499,25.6155 -22.12,47.69 -9.3364,17.6595 -12.1141,21.5238 -15.4719,21.5238 -7.6069,0 -8.5397,-3.557 -7.1521,-27.287 1.8879,-32.2575 -1.91,-43.0391 -15.9623,-45.3203 -12.8442,-2.0845 -40.0142,11.4072 -73.356,36.4253 -16.8102,12.6129 -46.0009,38.0871 -44.9021,39.1859 0.3318,0.3318 6.3211,-0.6023 13.3049,-2.0821 16.7055,-3.5386 45.0916,-3.4698 62.692,0.1477 33.666,6.9296 73.0462,29.3531 99.2051,56.4926 3.4719,3.6025 6.8275,6.5498 7.4567,6.5498 0.6269,0 5.5973,-5.5653 11.0411,-12.3658 z m 241.4017,-31.1415 c 6.4357,-16.6406 11.6001,-88.8423 6.7048,-93.7365 -1.2683,-1.2684 -7.3144,-0.7498 -18.8494,1.6126 -17.9852,3.6836 -30.2417,8.7044 -38.7692,15.881 -2.8564,2.4029 -7.6831,5.4166 -10.7275,6.6961 l -5.5346,2.3267 11.7048,6.0692 c 16.042,8.3173 33.0404,26.6258 42.7711,46.0663 4.1432,8.278 7.5331,16.1921 7.5331,17.5859 0,4.3091 3.1169,2.7998 5.1669,-2.5013 z m -92.7949,-70.723 h 17.7061 l -5.1326,-10.1744 c -2.8233,-5.5973 -6.1811,-13.6786 -7.4629,-17.9607 -1.2822,-4.2821 -2.8874,-7.7863 -3.5682,-7.7863 -2.0586,0 -22.491,14.6311 -29.0411,20.795 -6.6984,6.304 -16.7695,20.0329 -16.7695,22.8598 0,0.971 5.9759,-0.3318 13.2802,-2.9142 10.6561,-3.7634 16.7821,-4.7037 30.988,-4.7553 z m -80.0459,-10.4178 c -6.6163,-9.5475 -14.3605,-16.0666 -24.3704,-20.5147 -11.4416,-5.0835 -11.2964,-2.8011 0.3075,4.9041 5.5146,3.6602 14.02,10.6402 18.9019,15.5111 4.8821,4.8708 9.2047,8.5667 9.6067,8.214 0.4054,-0.3565 -1.6004,-4.0044 -4.4482,-8.1145 z"
       id="path5863" />
  </g>
</svg>
