<?xml version="1.0" encoding="UTF-8" standalone="no"?>
<!-- Created with Inkscape (http://www.inkscape.org/) -->

<svg
   version="1.1"
   id="svg840"
   width="4114.6665"
   height="2200"
   viewBox="0 0 4114.6665 2200"
   sodipodi:docname="fahrrad version 4.svg"
   inkscape:version="1.1 (c4e8f9e, 2021-05-24)"
   inkscape:export-filename="/Users/manoel/Desktop/fahrrad version 5.png"
   inkscape:export-xdpi="99.997414"
   inkscape:export-ydpi="99.997414"
   xmlns:inkscape="http://www.inkscape.org/namespaces/inkscape"
   xmlns:sodipodi="http://sodipodi.sourceforge.net/DTD/sodipodi-0.dtd"
   xmlns="http://www.w3.org/2000/svg"
   xmlns:svg="http://www.w3.org/2000/svg">
  <defs
     id="defs844" />
  <sodipodi:namedview
     id="namedview842"
     pagecolor="#ffffff"
     bordercolor="#666666"
     borderopacity="1.0"
     inkscape:pageshadow="2"
     inkscape:pageopacity="0.0"
     inkscape:pagecheckerboard="0"
     showgrid="true"
     inkscape:zoom="0.24683002"
     inkscape:cx="2175.5863"
     inkscape:cy="1079.6904"
     inkscape:window-width="1920"
     inkscape:window-height="976"
     inkscape:window-x="0"
     inkscape:window-y="25"
     inkscape:window-maximized="0"
     inkscape:current-layer="layer1"
     height="2200px">
    <inkscape:grid
       type="xygrid"
       id="grid12083" />
  </sodipodi:namedview>
  <g
     inkscape:groupmode="layer"
     id="layer1"
     inkscape:label="hintergrund" />
  <g
     inkscape:groupmode="layer"
     inkscape:label="Image"
     id="g846"
     style="display:inline">
    <path
       id="path22068"
       style="fill:#ff5555;fill-opacity:1;stroke:#95c5dd;stroke-width:1.65759;stroke-linecap:round;stroke-linejoin:bevel;paint-order:stroke fill markers"
       d="m 2988.3438,1500.3223 c -98.9377,-1.3462 -199.6528,2.9092 -300.6895,14.6367 -404.1469,46.9102 -797.3837,180.3711 -1051.2168,348.4023 C 1432.4857,1998.3723 1320,2120 1260.2012,2200 H 4122 v -458.6855 c -83.2605,-51.664 -194.4683,-95.2648 -330.5312,-128.0918 -225.5002,-54.405 -506.3125,-108.862 -803.125,-112.9004 z"
       sodipodi:nodetypes="ssscccss" />
    <path
       id="path21615"
       style="display:inline;fill:#f88120;fill-opacity:1;stroke:#95c5dd;stroke-width:1.37955;stroke-linecap:round;stroke-linejoin:bevel;paint-order:stroke fill markers"
       d="m 4120,1961.6289 c -131.7438,-73.5412 -346.6674,-137.354 -518.7363,-174.6191 -162.612,-35.217 -374.9574,-60.1829 -596.5039,-64.1758 -132.9279,-2.3958 -269.1689,2.7592 -399.9649,17.7812 -348.7892,40.0588 -672.6765,172.7219 -905.7597,285.7207 -113.0421,54.8029 -199.2595,113.7899 -256.1739,173.6641 H 4120 Z" />
    <path
       id="path21497"
       style="display:inline;fill:#7f99de;fill-opacity:1;stroke:#95c5dd;stroke-width:1.14243;stroke-linecap:round;stroke-linejoin:bevel;paint-order:stroke fill markers"
       d="m 2695.498,1868.8164 c -35.7443,0.3679 -71.3165,1.6131 -106.4609,3.8223 -281.1551,17.6733 -547.1544,115.6109 -739.4824,201.0605 -86.9256,38.6203 -155.3769,81.4509 -203.6777,126.3008 h 2217.9453 c -63.6678,-92.0655 -300.7257,-187.751 -479.8282,-240.4961 -179.6248,-52.8988 -438.2854,-93.2627 -688.4961,-90.6875 z" />
    <path
       id="path56697"
       style="display:inline;fill:#ffd42a;fill-opacity:1;stroke:#95c5dd;stroke-width:1.14243;stroke-linecap:round;stroke-linejoin:bevel;paint-order:stroke fill markers"
       d="m 2588,2000 c -35.7388,0.7281 -71.2977,2.3312 -106.418,4.8945 -266.7938,19.4716 -518.4011,111.0871 -707.1074,195.1055 H 3590.3633 C 3494.3902,2153.2629 3376.9549,2111.9828 3277.375,2083.7441 3097.2262,2032.6582 2838.172,1994.9035 2588,2000 Z" />
    <circle
       style="fill:none;fill-opacity:1;stroke:#4d4d4d;stroke-width:53.5688;stroke-linecap:round;stroke-linejoin:bevel;stroke-miterlimit:4;stroke-dasharray:none;stroke-opacity:1;paint-order:stroke fill markers"
       id="path10204"
       cx="3156.1675"
       cy="996.85425"
       r="420.42511" />
    <circle
       style="display:inline;fill:none;fill-opacity:1;stroke:#4d4d4d;stroke-width:53.5688;stroke-linecap:round;stroke-linejoin:bevel;stroke-miterlimit:4;stroke-dasharray:none;stroke-opacity:1;paint-order:stroke fill markers"
       id="path10204-7"
       cx="2123.4182"
       cy="996.76282"
       r="420.42511" />
    <path
       style="display:inline;fill:none;stroke:#4d4d4d;stroke-width:53.5688;stroke-linecap:round;stroke-linejoin:miter;stroke-miterlimit:4;stroke-dasharray:none;stroke-opacity:1"
       d="m 3174.3714,1005.2946 -41.6512,-141.6141 -270.7328,-462.32843 8.3303,-249.90718 137.4489,-66.64193"
       id="path10675" />
    <ellipse
       style="display:inline;fill:#4d4d4d;fill-opacity:1;stroke:#4d4d4d;stroke-width:53.5688;stroke-linecap:round;stroke-linejoin:bevel;stroke-miterlimit:4;stroke-dasharray:none;stroke-opacity:1;paint-order:stroke fill markers"
       id="path10779"
       cx="3174.177"
       cy="1006.4218"
       rx="6.5731468"
       ry="6.5731502" />
    <ellipse
       style="display:inline;fill:#4d4d4d;fill-opacity:1;stroke:#4d4d4d;stroke-width:4.2855;stroke-linecap:round;stroke-linejoin:bevel;stroke-miterlimit:4;stroke-dasharray:none;stroke-opacity:1;paint-order:stroke fill markers"
       id="path10779-7"
       cx="2110.9619"
       cy="986.3501"
       rx="6.5731468"
       ry="6.5731502" />
    <path
       style="fill:none;stroke:#4d4d4d;stroke-width:53.5688;stroke-linecap:butt;stroke-linejoin:miter;stroke-miterlimit:4;stroke-dasharray:none;stroke-opacity:1"
       d="M 2113.1507,981.23362 2955.618,563.42466 2120,560 Z"
       id="path11417" />
    <path
       style="fill:none;stroke:#4d4d4d;stroke-width:53.5688;stroke-linecap:butt;stroke-linejoin:miter;stroke-miterlimit:4;stroke-dasharray:none;stroke-opacity:1"
       d="M 2120.6503,558.04024 V 502.51169"
       id="path11532"
       sodipodi:nodetypes="cc" />
    <path
       style="fill:none;stroke:#4d4d4d;stroke-width:53.5688;stroke-linecap:round;stroke-linejoin:miter;stroke-miterlimit:4;stroke-dasharray:none;stroke-opacity:1"
       d="M 1931.7076,476.74843 2215.527,475.5037"
       id="path11647" />
    <path
       style="display:inline;fill:none;stroke:#4d4d4d;stroke-width:53.5688;stroke-linecap:butt;stroke-linejoin:miter;stroke-miterlimit:4;stroke-dasharray:none;stroke-opacity:1"
       d="m 1477.0468,982.47842 636.1039,-1.2448"
       id="path11647-8"
       sodipodi:nodetypes="cc" />
    <path
       style="fill:none;stroke:#4d4d4d;stroke-width:50;stroke-linecap:round;stroke-linejoin:bevel;stroke-miterlimit:4;stroke-dasharray:none;paint-order:stroke fill markers"
       id="path1225"
       sodipodi:type="arc"
       sodipodi:cx="1022.9677"
       sodipodi:cy="954.12079"
       sodipodi:rx="417.75262"
       sodipodi:ry="417.75262"
       sodipodi:start="0.18087057"
       sodipodi:end="2.6802304"
       sodipodi:arc-type="arc"
       d="M 1433.9057,1029.2686 A 417.75262,417.75262 0 0 1 1081.3639,1367.7718 417.75262,417.75262 0 0 1 648.89242,1140.091"
       sodipodi:open="true" />
    <g
       aria-label="nest.werk"
       id="text2643"
       style="font-size:266.667px;line-height:1.25;fill:#4d4d4d">
      <path
         d="m 147.78077,1708.0683 v 4.2968 q 9.37501,-12.3698 20.44273,-18.0989 11.19793,-5.8594 25.65107,-5.8594 14.06252,0 25.13024,6.1198 11.06772,6.1198 16.53648,17.3177 3.51563,6.5104 4.5573,14.0625 1.04166,7.5521 1.04166,19.2709 v 66.1459 q 0,10.6771 -4.94792,16.1458 -4.81771,5.4688 -12.63022,5.4688 -7.94272,0 -12.89064,-5.599 -4.94793,-5.5989 -4.94793,-16.0156 v -59.2449 q 0,-17.5781 -4.94792,-26.8229 -4.81771,-9.375 -19.40106,-9.375 -9.50522,0 -17.31773,5.7291 -7.81251,5.599 -11.45835,15.4948 -2.60417,7.9428 -2.60417,29.6876 v 44.5313 q 0,10.8073 -5.07813,16.276 -4.94792,5.3386 -12.89064,5.3386 -7.6823,0 -12.63023,-5.599 -4.94792,-5.5989 -4.94792,-16.0156 v -102.7345 q 0,-10.1563 4.42709,-15.1042 4.42709,-5.0781 12.10939,-5.0781 4.68751,0 8.46355,2.2135 3.77605,2.2136 5.98959,6.6406 2.34376,4.4271 2.34376,10.8074 z"
         style="font-weight:bold;font-family:'Arial Rounded MT Bold';-inkscape-font-specification:'Arial Rounded MT Bold,  Bold'"
         id="path928" />
      <path
         d="m 375.64563,1769.3965 h -69.53134 q 0.13021,12.1093 4.81772,21.3541 4.81771,9.2448 12.63022,13.9324 7.94272,4.6875 17.44794,4.6875 6.38022,0 11.58856,-1.4323 5.33854,-1.5625 10.28647,-4.6875 4.94792,-3.2553 9.11459,-6.9011 4.16667,-3.6458 10.80731,-9.8958 2.73437,-2.3438 7.81251,-2.3438 5.46875,0 8.85417,2.9948 3.38542,2.9948 3.38542,8.4636 0,4.8177 -3.77604,11.3281 -3.77605,6.3802 -11.45835,12.3698 -7.55209,5.8594 -19.14065,9.7656 -11.45835,3.9063 -26.43232,3.9063 -34.24484,0 -53.25528,-19.5313 -19.01044,-19.5313 -19.01044,-52.9948 0,-15.7553 4.68751,-29.1667 4.68751,-13.5417 13.67189,-23.1771 8.98439,-9.6355 22.13545,-14.7136 13.15105,-5.2083 29.1667,-5.2083 20.83336,0 35.67712,8.8541 14.97398,8.724 22.39587,22.6563 7.42188,13.9323 7.42188,28.3855 0,13.4114 -7.6823,17.4479 -7.6823,3.9063 -21.61461,3.9063 z m -69.53134,-20.1824 h 64.45321 q -1.30209,-18.2292 -9.89585,-27.2135 -8.46355,-9.1146 -22.39586,-9.1146 -13.28127,0 -21.87503,9.2448 -8.46355,9.1146 -10.28647,27.0833 z"
         style="font-weight:bold;font-family:'Arial Rounded MT Bold';-inkscape-font-specification:'Arial Rounded MT Bold,  Bold'"
         id="path930" />
      <path
         d="m 549.21356,1786.4538 q 0,14.7135 -7.16146,25.2604 -7.16147,10.4167 -21.22399,15.8854 -13.93231,5.3386 -33.98441,5.3386 -19.14065,0 -32.81254,-5.8594 -13.6719,-5.8594 -20.18232,-14.5833 -6.51042,-8.8542 -6.51042,-17.7084 0,-5.8594 4.16667,-10.026 4.16667,-4.1667 10.54688,-4.1667 5.59897,0 8.59377,2.7344 2.99479,2.7343 5.72917,7.6823 5.46876,9.5052 13.02085,14.1927 7.6823,4.6875 20.83336,4.6875 10.67709,0 17.44793,-4.6875 6.90105,-4.8177 6.90105,-10.9375 0,-9.375 -7.16146,-13.6719 -7.03126,-4.2969 -23.30732,-8.2032 -18.3594,-4.5573 -29.94796,-9.5052 -11.45834,-5.0781 -18.35939,-13.2812 -6.90105,-8.2032 -6.90105,-20.1824 0,-10.6771 6.38021,-20.1823 6.38022,-9.5052 18.75003,-15.1042 12.50001,-5.7291 30.07816,-5.7291 13.8021,0 24.73961,2.8646 11.06772,2.8645 18.3594,7.6823 7.42188,4.8177 11.19793,10.6771 3.90625,5.8593 3.90625,11.4583 0,6.1198 -4.16667,10.0261 -4.03646,3.9062 -11.58855,3.9062 -5.46876,0 -9.37502,-3.125 -3.77604,-3.125 -8.72396,-9.375 -4.03647,-5.2083 -9.50522,-8.3333 -5.46876,-3.1251 -14.84377,-3.1251 -9.63543,0 -16.01565,4.1667 -6.38021,4.0365 -6.38021,10.1563 0,5.5989 4.6875,9.2448 4.68751,3.5156 12.63023,5.8594 7.94271,2.3437 21.87502,5.7291 16.53648,4.0365 26.95316,9.6355 10.54689,5.5989 15.88544,13.2812 5.46875,7.5521 5.46875,17.3178 z"
         style="font-weight:bold;font-family:'Arial Rounded MT Bold';-inkscape-font-specification:'Arial Rounded MT Bold,  Bold'"
         id="path932" />
      <path
         d="m 581.50524,1691.5318 h 3.90625 v -21.3542 q 0,-8.5938 0.39063,-13.4115 0.52083,-4.9479 2.60417,-8.4635 2.08333,-3.6459 5.98959,-5.8594 3.90625,-2.3438 8.72397,-2.3438 6.77084,0 12.23959,5.0781 3.64584,3.3855 4.5573,8.3334 1.04167,4.8177 1.04167,13.8021 v 24.2188 h 13.02085 q 7.55209,0 11.45835,3.6458 4.03646,3.5156 4.03646,9.1146 0,7.1615 -5.72918,10.0261 -5.59896,2.8645 -16.14585,2.8645 h -6.64063 v 65.3647 q 0,8.3334 0.52083,12.8906 0.65105,4.4271 3.12501,7.2917 2.60417,2.7344 8.33334,2.7344 3.125,0 8.46355,-1.0417 5.33855,-1.1718 8.33335,-1.1718 4.29688,0 7.6823,3.5156 3.51563,3.3854 3.51563,8.4635 0,8.5938 -9.37502,13.1511 -9.37501,4.5573 -26.95315,4.5573 -16.66669,0 -25.26045,-5.599 -8.59376,-5.5989 -11.32814,-15.4948 -2.60417,-9.8958 -2.60417,-26.4323 v -68.2293 h -4.68751 q -7.6823,0 -11.71876,-3.6458 -4.03646,-3.6458 -4.03646,-9.2448 0,-5.599 4.16667,-9.1146 4.29688,-3.6458 12.36981,-3.6458 z"
         style="font-weight:bold;font-family:'Arial Rounded MT Bold';-inkscape-font-specification:'Arial Rounded MT Bold,  Bold'"
         id="path934" />
      <path
         d="m 697.39078,1832.9382 q -8.07293,0 -13.93231,-5.2083 -5.85938,-5.2084 -5.85938,-14.5834 0,-7.9427 5.59896,-13.6719 5.59897,-5.7292 13.8021,-5.7292 8.20314,0 13.93231,5.7292 5.85939,5.599 5.85939,13.6719 0,9.2448 -5.85939,14.5834 -5.72917,5.2083 -13.54168,5.2083 z"
         style="font-weight:bold;font-family:'Arial Rounded MT Bold';-inkscape-font-specification:'Arial Rounded MT Bold,  Bold'"
         id="path936" />
      <path
         d="m 779.29198,1710.5422 23.17711,79.4272 21.09378,-73.8282 q 3.38542,-11.5886 4.94792,-15.7552 1.69271,-4.2969 6.1198,-8.073 4.5573,-3.9062 12.36981,-3.9062 7.94272,0 12.36981,3.9062 4.55729,3.7761 6.38021,8.3334 1.82292,4.4271 5.07813,15.4948 l 21.09378,73.8282 23.43753,-79.4272 q 2.34375,-8.5937 3.77604,-12.3698 1.4323,-3.9062 4.81772,-6.7708 3.38542,-2.9948 9.76563,-2.9948 6.38022,0 11.06773,4.4271 4.6875,4.427 4.6875,10.4166 0,5.4688 -4.03646,16.5365 l -29.03649,85.1564 q -3.77605,10.8073 -5.85939,15.625 -2.08333,4.8177 -6.64063,8.5937 -4.42709,3.7761 -12.2396,3.7761 -8.07292,0 -12.76043,-4.0365 -4.5573,-4.0364 -6.77084,-9.8958 -2.21355,-5.8594 -4.81772,-15.2344 l -20.31252,-69.2709 -19.66148,69.2709 q -3.90626,14.4531 -8.46356,21.875 -4.55729,7.2917 -16.01564,7.2917 -5.85938,0 -10.02605,-2.3438 -4.03647,-2.2135 -6.77085,-6.3802 -2.73437,-4.2969 -4.81771,-10.026 -2.08334,-5.8594 -3.25521,-9.2448 l -28.77608,-85.1564 q -4.29688,-11.9792 -4.29688,-16.5365 0,-5.7291 4.5573,-10.2864 4.5573,-4.5573 11.19793,-4.5573 8.85418,0 11.97918,5.0781 3.125,4.9479 6.64063,17.0573 z"
         style="font-weight:bold;font-family:'Arial Rounded MT Bold';-inkscape-font-specification:'Arial Rounded MT Bold,  Bold'"
         id="path938" />
      <path
         d="m 1069.722,1769.3965 h -69.5314 q 0.1302,12.1093 4.8177,21.3541 4.8178,9.2448 12.6303,13.9324 7.9427,4.6875 17.4479,4.6875 6.3802,0 11.5886,-1.4323 5.3385,-1.5625 10.2864,-4.6875 4.948,-3.2553 9.1146,-6.9011 4.1667,-3.6458 10.8073,-9.8958 2.7344,-2.3438 7.8125,-2.3438 5.4688,0 8.8542,2.9948 3.3854,2.9948 3.3854,8.4636 0,4.8177 -3.776,11.3281 -3.776,6.3802 -11.4584,12.3698 -7.552,5.8594 -19.1406,9.7656 -11.4583,3.9063 -26.4323,3.9063 -34.2449,0 -53.2553,-19.5313 -19.01044,-19.5313 -19.01044,-52.9948 0,-15.7553 4.68751,-29.1667 4.68751,-13.5417 13.67189,-23.1771 8.98439,-9.6355 22.13544,-14.7136 13.1511,-5.2083 29.1667,-5.2083 20.8334,0 35.6771,8.8541 14.974,8.724 22.3959,22.6563 7.4219,13.9323 7.4219,28.3855 0,13.4114 -7.6823,17.4479 -7.6823,3.9063 -21.6146,3.9063 z m -69.5314,-20.1824 h 64.4532 q -1.302,-18.2292 -9.8958,-27.2135 -8.4636,-9.1146 -22.3959,-9.1146 -13.2812,0 -21.875,9.2448 -8.4635,9.1146 -10.2865,27.0833 z"
         style="font-weight:bold;font-family:'Arial Rounded MT Bold';-inkscape-font-specification:'Arial Rounded MT Bold,  Bold'"
         id="path940" />
      <path
         d="m 1164.3185,1781.636 v 29.6876 q 0,10.8073 -5.0782,16.276 -5.0781,5.3386 -12.8906,5.3386 -7.6823,0 -12.6302,-5.4688 -4.948,-5.4687 -4.948,-16.1458 v -98.9585 q 0,-23.9583 17.3178,-23.9583 8.8542,0 12.7604,5.5989 3.9063,5.599 4.2969,16.5365 6.3802,-10.9375 13.0208,-16.5365 6.7709,-5.5989 17.9688,-5.5989 11.1979,0 21.7448,5.5989 10.5469,5.599 10.5469,14.8438 0,6.5104 -4.5573,10.8073 -4.4271,4.1667 -9.6354,4.1667 -1.9531,0 -9.5052,-2.3438 -7.4219,-2.4739 -13.1511,-2.4739 -7.8125,0 -12.7604,4.1666 -4.9479,4.0365 -7.6823,12.1094 -2.7344,8.073 -3.7761,19.2709 -1.0416,11.0677 -1.0416,27.0833 z"
         style="font-weight:bold;font-family:'Arial Rounded MT Bold';-inkscape-font-specification:'Arial Rounded MT Bold,  Bold'"
         id="path942" />
      <path
         d="m 1327.7952,1816.6621 -31.3802,-51.5625 -19.2709,18.2292 v 28.2552 q 0,10.2865 -5.4687,15.8854 -5.3386,5.4688 -12.3698,5.4688 -8.2032,0 -12.8907,-5.4688 -4.6875,-5.4687 -4.6875,-16.1458 v -151.5627 q 0,-11.849 4.5573,-17.9688 4.5573,-6.25 13.0209,-6.25 8.2031,0 13.0208,5.599 4.8177,5.599 4.8177,16.5365 v 86.198 l 39.974,-41.9271 q 7.4219,-7.8126 11.3282,-10.6771 3.9062,-2.8646 9.5052,-2.8646 6.6406,0 11.0677,4.2968 4.4271,4.1667 4.4271,10.5469 0,7.8125 -14.4531,20.8334 l -18.8803,17.3177 36.4584,57.2918 q 4.0365,6.3802 5.7292,9.7656 1.8229,3.2552 1.8229,6.25 0,8.4636 -4.6875,13.4115 -4.5573,4.8177 -12.1094,4.8177 -6.5104,0 -10.026,-3.5156 -3.5157,-3.5157 -9.5053,-12.7605 z"
         style="font-weight:bold;font-family:'Arial Rounded MT Bold';-inkscape-font-specification:'Arial Rounded MT Bold,  Bold'"
         id="path944" />
    </g>
    <path
       style="fill:#4d4d4d;fill-opacity:1;stroke:#4d4d4d;stroke-width:1.86205;stroke-linecap:round;stroke-linejoin:bevel;stroke-miterlimit:4;stroke-dasharray:none;stroke-opacity:1;paint-order:stroke fill markers"
       d="m 757.00089,1217.8006 c -3.59168,-3.2065 -5.87507,-9.1712 -10.2791,-26.858 -6.78087,-27.2328 -15.25791,-54.1597 -21.39116,-67.943 l -4.48226,-10.0761 -4.51452,5.4967 c -4.85017,5.9034 -25.66471,47.4638 -30.99897,61.8945 -3.65531,9.8878 -11.80285,17.7922 -18.33905,17.7922 -14.23423,0 -43.20631,-43.1668 -52.25365,-77.8555 -7.54052,-28.9079 -6.71817,-72.3489 2.01567,-106.4981 1.98371,-7.7531 3.3776,-14.32478 3.09852,-14.60398 -1.14308,-1.1433 -34.63692,15.89918 -51.97704,26.44498 -19.74153,12.0058 -25.92633,13.504 -31.74115,7.6892 -5.55671,-5.5568 -6.13683,-11.2954 -2.72489,-26.9122 7.16191,-32.78098 22.5501,-73.37064 44.23247,-116.67499 6.48595,-12.95346 11.4085,-23.93534 10.93885,-24.40607 -0.46704,-0.46703 -9.58077,1.25004 -20.24546,3.82004 -21.0655,5.07609 -25.89329,4.63119 -31.14642,-2.86875 -4.3055,-6.14539 -3.62459,-12.95577 2.84657,-28.50009 16.2608,-39.06047 52.25594,-73.73804 97.7925,-94.21222 7.51608,-3.37876 13.45984,-6.63217 13.20903,-7.22827 -0.24604,-0.58997 -9.11128,-8.01736 -19.68991,-16.48948 -19.56833,-15.67089 -21.74753,-18.86528 -19.36071,-28.37599 2.25788,-8.99817 20.39561,-13.99689 66.30946,-18.2766 38.70023,-3.6061 53.47772,-6.59527 68.09646,-13.77686 9.89167,-4.85857 13.53714,-8.20168 25.48521,-23.36988 33.5822,-42.62977 42.18466,-52.52026 53.52076,-61.53071 22.3794,-17.78739 32.9052,-21.3997 40.431,-13.87398 3.1979,3.1981 3.6639,6.10614 3.6639,22.89918 0,10.5788 0.3565,19.23406 0.7988,19.23406 0.4424,0 7.0881,-4.5071 14.7674,-10.01709 25.4324,-18.24834 56.0143,-31.06157 85.1821,-35.69279 16.2513,-2.58109 31.6185,-2.39794 35.4754,0.41789 2.4198,1.7699 7.3083,1.97637 20.0425,0.84805 38.983,-3.45618 78.4211,4.49481 93.9003,18.93046 5.3046,4.94707 7.0019,4.45792 10.5788,-3.04323 7.6285,-15.99658 30.9986,-35.30559 58.9886,-48.73586 14.0154,-6.72559 15.9918,-7.21846 20.8528,-5.20522 7.0193,2.90803 10.156,6.68381 12.984,15.62911 1.2746,4.03018 5.0098,12.71494 8.3001,19.29918 l 5.9833,11.97256 19.6751,-2.68185 c 59.4916,-8.10708 83.952,19.25369 71.4718,79.95229 l -3.1071,15.11412 6.3111,7.78382 c 8.0863,9.97407 16.808,25.77646 19.7135,35.71982 1.2515,4.28216 2.9882,7.78627 3.8571,7.78627 0.8726,0 4.7712,-5.15234 8.6697,-11.45019 10.7559,-17.37564 15.531,-21.86551 22.528,-21.18216 7.4804,0.72519 13.4993,9.13954 22.5219,31.46843 8.7131,21.56313 14.8637,47.66533 17.548,74.47914 1.2043,12.06844 2.7099,21.94295 3.3366,21.94295 0.627,0 5.2496,-2.74824 10.2742,-6.10611 16.7882,-11.22407 33.2479,-19.54009 38.672,-19.54009 6.7415,0 12.6943,4.09411 16.4158,11.2929 3.7843,7.31677 2.5614,16.62832 -6.9368,52.82376 -8.23,31.36028 -14.576,47.12333 -24.3129,60.38646 -3.5533,4.84032 -6.4602,10.5654 -6.4602,12.72232 0,4.25388 9.5685,24.31372 19.3423,40.55139 11.3644,18.88 12.8711,54.61208 2.8393,67.35658 -9.7368,12.3733 -14.6752,16.8275 -18.6539,16.8275 -2.2455,0 -15.2024,-6.1824 -28.794,-13.7388 -13.5923,-7.5564 -25.5095,-13.7401 -26.4829,-13.7401 -0.9711,0 -1.3077,1.8548 -0.7377,4.1225 7.9622,31.8149 8.7032,136.1352 1.0324,145.3755 -1.1675,1.4023 -5.4066,2.5505 -9.4294,2.5505 -8.4121,0 -11.6848,-2.9952 -29.8202,-27.2859 -11.4022,-15.2727 -14.9152,-18.257 -11.7784,-10.0048 2.1976,5.7778 -0.381,15.1682 -5.4153,19.7231 -7.2209,6.5353 -51.2777,16.3693 -86.9202,19.4 -39.5937,3.3676 -82.0378,-2.7604 -111.4315,-16.0875 l -12.1914,-5.5285 -1.1924,4.8538 c -4.2819,17.3893 -30.3029,48.817 -46.3746,56.0096 -12.4913,5.59 -16.0323,3.3002 -27.1923,-17.582 -5.1832,-9.7002 -12.752,-22.5368 -16.8202,-28.5262 -7.7987,-11.4845 -25.9536,-32.2304 -27.1543,-31.0308 -1.1921,1.1924 4.8267,40.4421 6.7279,43.8197 6.3692,11.3186 -2.383,24.6738 -17.8376,27.2169 -33.0734,5.4398 -79.9585,-1.9984 -112.2689,-17.813 -14.3938,-7.0454 -19.9886,-11.1248 -32.3569,-23.5924 l -14.9531,-15.0749 -8.8619,12.9828 c -18.1387,26.5766 -61.1335,63.4763 -73.9617,63.4763 -2.8723,0 -7.30061,-1.8546 -9.84019,-4.1211 z m 226.07371,-53.3301 c 0,-0.369 -2.3698,-5.9293 -5.2655,-12.3645 -7.6091,-16.9149 -11.2337,-33.5716 -11.1416,-51.2064 0.1476,-27.3596 4.4764,-38.3528 15.1266,-38.3528 9.7602,0 66.6755,49.5091 82.7999,72.0275 4.03,5.6277 7.9203,10.2713 8.6455,10.3204 2.4878,0.1729 16.0863,-46.6316 19.5841,-67.3997 3.8928,-23.108 7.6122,-29.6037 16.9467,-29.6037 4.0624,0 8.7931,3.6392 22.3412,17.1877 36.5421,36.5419 74.3611,56.1815 113.8397,59.1155 l 14.6557,1.0939 -9.3894,-9.8437 c -15.2148,-15.9513 -22.3164,-31.3802 -26.3442,-57.2302 -2.5331,-16.2622 -0.3934,-19.9541 14.2196,-24.4575 7.8696,-2.4278 16.7573,-3.245 35.2529,-3.2414 22.9702,0 25.8538,0.4057 40.5167,5.6428 20.0096,7.147 38.1067,19.1591 53.5871,35.5688 l 12.1458,12.871 v -14.2317 c 0,-29.6001 -9.5805,-71.08308 -21.1662,-91.85968 -2.4581,-4.4087 -4.4685,-9.50087 -4.4685,-11.31621 0,-5.14978 8.7202,-11.05328 14.4171,-9.75895 12.8328,2.91414 45.0999,14.58186 60.5178,21.88516 9.4775,4.4887 17.6323,7.7593 18.1231,7.2687 0.4913,-0.4916 0,-5.5739 -1.2047,-11.2966 -3.6087,-17.96932 -21.2633,-36.97967 -45.7223,-49.23249 -10.6032,-5.3109 -12.3241,-7.69403 -10.5785,-14.64824 0.897,-3.59399 4.7836,-6.29555 18.059,-12.5711 19.9026,-9.40881 31.3208,-17.41988 35.0177,-24.57081 3.9604,-7.65714 10.6159,-28.16341 9.5036,-29.27697 -0.5286,-0.52851 -6.5498,1.52789 -13.3737,4.57476 -15.3565,6.85833 -37.9592,13.30616 -46.6463,13.30616 -10.9011,0 -11.5647,-2.25173 -8.7883,-29.84852 2.8196,-28.01218 3.2473,-54.9821 1.18,-74.65861 -1.9629,-18.73131 -3.2864,-20.47539 -9.5697,-12.59692 -8.4623,10.61196 -41.7508,42.16392 -46.4719,44.04689 -5.2923,2.11158 -13.9158,-0.83578 -15.6451,-5.33917 -0.6268,-1.62362 -0.1708,-10.64146 1.0203,-20.03785 2.8364,-22.53905 1.4833,-65.49943 -2.2874,-72.62692 l -2.7901,-5.27281 -5.8454,11.68496 c -3.2166,6.42691 -8.268,15.87493 -11.2269,20.9953 -5.248,9.08052 -5.3979,10.05274 -6.0959,39.3862 -0.7744,32.54876 -3.1809,46.84432 -12.409,73.72205 -3.0643,8.92197 -5.3008,16.43657 -4.9728,16.69968 3.5177,2.81573 24.3272,10.61688 30.6212,11.47965 4.4593,0.61457 9.6265,2.63025 11.4823,4.48626 4.806,4.80575 4.3607,14.84864 -0.9339,21.00018 -4.1249,4.79469 -5.1034,5.02198 -23.3565,5.40926 -49.0702,1.04472 -79.8811,13.86294 -145.3524,60.49322 -6.9061,4.92018 -10.1704,6.17755 -13.7386,5.2927 -8.4437,-2.09443 -12.42,-7.69312 -14.7208,-20.73361 -1.1799,-6.71707 -2.4765,-13.24114 -2.8675,-14.49856 -0.9953,-3.19057 -32.1885,8.14294 -49.1918,17.86988 -7.2407,4.14323 -19.1442,12.84141 -26.4524,19.33127 -8.804,7.81568 -14.8327,11.79676 -17.8663,11.79676 -5.6155,0 -12.9827,-7.04264 -14.6849,-14.03873 -0.6884,-2.85768 -2.3773,-6.82155 -3.7376,-8.80895 -3.2229,-4.70484 -3.1221,-10.06015 0.4546,-24.32864 1.6114,-6.42817 2.5173,-12.10022 2.0122,-12.60537 -2.5469,-2.54665 -51.1808,31.311 -79.6981,55.48359 -9.2662,7.8551 -12.8502,9.7945 -18.1008,9.7945 -5.8924,0 -8.1944,-1.7402 -23.0233,-17.40352 -9.0634,-9.57135 -17.0732,-17.40321 -17.8022,-17.40321 -0.7252,0 -2.8381,3.35812 -4.6879,7.46063 -3.6476,8.08868 -8.8295,12.69056 -14.2915,12.69056 -1.9029,0 -11.0903,-2.85758 -20.4151,-6.3508 -22.12134,-8.28538 -40.28227,-13.24092 -70.43938,-19.22423 -26.84835,-5.32566 -29.73418,-7.0647 -26.55452,-16.00417 1.50192,-4.22423 1.0939,-6.22762 -2.33395,-11.30507 -4.37822,-6.49195 -4.02797,-9.98635 0.90933,-9.03613 1.61887,0.3072 4.91764,-1.40741 7.33181,-3.82128 4.17274,-4.17274 5.20993,-4.33626 21.15724,-3.32965 13.87785,0.8726 39.59896,6.11113 56.73987,11.55219 3.4279,1.08176 3.3518,0.60228 -1.0939,-6.97742 -14.75393,-25.17431 -24.23881,-48.24919 -30.71631,-74.72751 -3.3773,-13.80146 -4.26234,-22.52061 -4.27955,-42.13321 0,-22.23914 0.47933,-26.18821 4.99017,-39.18706 9.20809,-26.55942 25.36611,-45.13217 49.49539,-56.89212 10.5603,-5.14743 11.9453,-6.32737 8.6525,-7.37332 -6.9588,-2.20868 -9.5349,-8.84697 -10.6436,-27.42098 -0.5778,-9.63116 -1.5697,-17.51087 -2.2113,-17.51087 -2.1766,0 -26.26683,24.68014 -33.08074,33.89094 -3.72661,5.03681 -10.80514,16.16621 -15.72755,24.73051 -4.92362,8.5643 -9.79223,16.17606 -10.8196,16.9172 -3.45013,2.48523 -8.24851,1.43189 -12.39543,-2.71997 -3.82866,-3.83354 -5.97696,-4.16293 -30.68423,-4.69881 -14.61275,-0.31957 -28.49628,0.13524 -30.85145,1.02016 -4.03766,1.50193 -3.38605,2.36354 11.34211,15.00717 16.48197,14.14928 17.67177,15.74955 17.67177,23.76939 0,6.65673 -5.05533,11.01262 -23.43249,20.1841 -24.46278,12.2098 -53.5478,30.12132 -73.76146,45.42594 -24.0005,18.17208 -24.53131,18.61703 -23.4769,19.67156 0.47948,0.49165 12.67699,-0.35641 27.09164,-1.87188 14.41604,-1.51425 27.78857,-2.25168 29.71696,-1.63962 5.09222,1.61625 9.44077,9.08545 7.97558,13.69944 -0.67589,2.13738 -4.81175,8.28041 -9.18612,13.65032 -24.14558,29.64443 -46.34663,62.55704 -58.34495,86.49607 -6.40481,12.7777 -16.14541,37.47625 -15.16585,38.45575 0.43031,0.4302 7.82574,-3.2485 16.42926,-8.18195 23.47199,-13.45884 53.71009,-26.50048 58.16438,-25.08723 2.05993,0.6515 5.05779,3.93795 6.66037,7.2995 2.73352,5.73368 2.59952,8.01282 -2.17305,36.93908 -8.71432,52.81678 -8.08991,106.11728 1.51299,129.31528 l 2.45567,5.9315 7.83557,-15.5713 c 15.68314,-31.1683 41.77923,-66.6843 50.62863,-68.9052 8.6441,-2.1695 13.32829,1.9506 20.93134,18.408 9.94593,21.5262 19.30294,50.3792 22.95208,70.7685 1.70095,9.5058 3.4022,18.3713 3.77825,19.7013 0.98326,3.4672 20.36733,-12.2012 36.30712,-29.3449 7.2138,-7.7568 18.4328,-22.3386 24.9335,-32.4047 13.1941,-20.4299 18.1955,-24.165 27.3005,-20.393 4.4112,1.8265 7.5059,6.502 16.82,25.4102 10.0898,20.4852 13.1281,24.8816 26.1943,37.9123 12.0242,11.9923 18.0271,16.3335 32.184,23.2814 18.1781,8.9196 49.4612,18.633 49.4612,15.3561 z M 912.2915,904.96281 c 4.8978,-6.05933 15.5821,-16.36041 23.7435,-22.89062 27.2672,-21.81623 56.6894,-33.04892 91.921,-35.09288 16.4405,-0.95865 18.7718,-0.68833 22.7456,2.54912 6.6248,5.40434 5.7252,12.67191 -3.348,27.03876 -8.3271,13.18321 -15.8344,29.13544 -13.2408,28.13129 6.8556,-2.65345 40.5152,-21.06043 40.534,-22.16662 0,-2.89197 -20.2101,-41.44241 -31.6858,-60.30153 -36.7231,-60.34956 -77.9049,-97.66352 -119.754,-108.50778 -31.1772,-8.07879 -70.223,0.6883 -89.6783,20.1485 -24.8139,24.81408 -29.3258,69.83686 -12.4065,123.81721 5.5077,17.57356 11.6692,32.66195 13.3357,32.65827 0.627,-10e-4 3.9579,-6.25005 7.3905,-13.8863 6.9531,-15.46445 12.0758,-20.16939 19.8488,-18.22871 7.6693,1.91379 10.9854,5.83204 18.5639,21.9381 7.4215,15.7692 19.6348,35.8304 21.8079,35.8181 0.7251,0 5.3246,-4.96435 10.2225,-11.02491 z m 262.0296,-20.93749 c 16.1218,-12.15938 31.6381,-21.71188 44.4293,-27.35351 6.5544,-2.89196 8.3625,-5.03427 13.0922,-15.52334 12.1889,-27.02645 17.2734,-51.63654 17.276,-83.61252 0,-36.39092 -6.8104,-58.18637 -23.9008,-76.45677 -11.0203,-11.78208 -20.3085,-16.39486 -35.1398,-17.45065 -30.1227,-2.14598 -69.9032,21.2301 -122.4335,71.94235 l -21.0543,20.32545 9.1825,13.64292 c 19.7343,29.32115 33.4228,59.65018 40.0561,88.75128 1.8361,8.06041 3.542,14.94333 3.7893,15.29479 0.246,0.35655 7.7186,-1.00784 16.6025,-3.02351 27.8021,-6.30522 30.8439,-6.44169 36.4427,-1.62611 5.3193,4.57601 6.2645,10.04044 3.8137,22.05106 -1.6716,8.19319 -2.8663,8.659 17.8441,-6.96144 z M 1041.7749,724.10349 c 17.3398,-21.66274 37.766,-43.58234 50.9752,-54.70192 7.0487,-5.9328 12.8708,-11.52762 12.9387,-12.431 0.1352,-1.77113 -6.0375,-9.7258 -26.3283,-33.94747 -14.9703,-17.87096 -31.927,-31.27296 -39.5657,-31.27296 -4.9092,0 -12.7553,7.00582 -12.7553,11.38874 0,3.08624 -10.4499,25.61547 -22.12,47.68993 -9.3364,17.65956 -12.1141,21.5238 -15.4719,21.5238 -7.6069,0 -8.5397,-3.55697 -7.1521,-27.28699 1.8879,-32.25746 -1.91,-43.03906 -15.9623,-45.32025 -12.8442,-2.08453 -40.0142,11.40718 -73.356,36.42532 -16.8102,12.61289 -46.0009,38.08704 -44.9021,39.18584 0.3318,0.33184 6.3211,-0.60227 13.3049,-2.08209 16.7055,-3.53855 45.0916,-3.46974 62.692,0.14768 33.666,6.92961 73.0462,29.35313 99.2051,56.49266 3.4719,3.60246 6.8275,6.54981 7.4567,6.54981 0.6269,0 5.5973,-5.56534 11.0411,-12.36585 z M 1283.1766,692.962 c 6.4357,-16.64062 11.6001,-88.8423 6.7048,-93.73655 -1.2683,-1.26839 -7.3144,-0.74975 -18.8494,1.61256 -17.9852,3.6836 -30.2417,8.70442 -38.7692,15.88109 -2.8564,2.40289 -7.6831,5.41657 -10.7275,6.6961 l -5.5346,2.32665 11.7048,6.06926 c 16.042,8.31724 33.0404,26.62577 42.7711,46.06627 4.1432,8.27794 7.5331,16.19204 7.5331,17.58583 0,4.30916 3.1169,2.79988 5.1669,-2.50121 z m -92.7949,-70.72304 h 17.7061 l -5.1326,-10.17443 c -2.8233,-5.59725 -6.1811,-13.67853 -7.4629,-17.9607 -1.2822,-4.28211 -2.8874,-7.78626 -3.5682,-7.78626 -2.0586,0 -22.491,14.63108 -29.0411,20.79495 -6.6984,6.30401 -16.7695,20.03295 -16.7695,22.85987 0,0.97097 5.9759,-0.33186 13.2802,-2.9142 10.6561,-3.76347 16.7821,-4.70372 30.988,-4.75534 z m -80.0459,-10.41781 c -6.6163,-9.54754 -14.3605,-16.06663 -24.3704,-20.51472 -11.4416,-5.08351 -11.2964,-2.80108 0.3075,4.90408 5.5146,3.66022 14.02,10.64023 18.9019,15.5111 4.8821,4.87089 9.2047,8.56676 9.6067,8.214 0.4054,-0.35641 -1.6004,-4.00435 -4.4482,-8.11446 z"
       id="path5863" />
  </g>
</svg>
