<?xml version="1.0" encoding="UTF-8" standalone="no"?>
<!-- Created with Inkscape (http://www.inkscape.org/) -->

<svg
   version="1.1"
   id="svg840"
   width="3000"
   height="3000"
   viewBox="0 0 3000 3000"
   sodipodi:docname="keinfahrrad fahrad.svg"
   inkscape:version="1.1 (c4e8f9e, 2021-05-24)"
   inkscape:export-filename="/Users/manoel/Desktop/fahrrad version 5.png"
   inkscape:export-xdpi="99.997414"
   inkscape:export-ydpi="99.997414"
   xmlns:inkscape="http://www.inkscape.org/namespaces/inkscape"
   xmlns:sodipodi="http://sodipodi.sourceforge.net/DTD/sodipodi-0.dtd"
   xmlns="http://www.w3.org/2000/svg"
   xmlns:svg="http://www.w3.org/2000/svg">
  <defs
     id="defs844" />
  <sodipodi:namedview
     id="namedview842"
     pagecolor="#ffffff"
     bordercolor="#666666"
     borderopacity="1.0"
     inkscape:pageshadow="2"
     inkscape:pageopacity="0.0"
     inkscape:pagecheckerboard="0"
     showgrid="true"
     inkscape:zoom="0.16061395"
     inkscape:cx="186.78328"
     inkscape:cy="1733.9714"
     inkscape:window-width="1920"
     inkscape:window-height="976"
     inkscape:window-x="0"
     inkscape:window-y="25"
     inkscape:window-maximized="0"
     inkscape:current-layer="g846"
     height="2200px"
     width="2500px">
    <inkscape:grid
       type="xygrid"
       id="grid12083" />
  </sodipodi:namedview>
  <g
     inkscape:groupmode="layer"
     id="layer1"
     inkscape:label="hintergrund"
     sodipodi:insensitive="true"
     style="display:inline">
    <rect
       style="fill:#f2f2f2;fill-opacity:1;stroke:none;stroke-linecap:round;stroke-linejoin:round;paint-order:markers fill stroke"
       id="rect915"
       width="3000"
       height="3000"
       x="0"
       y="0"
       ry="40"
       rx="0" />
  </g>
  <g
     inkscape:groupmode="layer"
     inkscape:label="Image"
     id="g846"
     style="display:inline">
    <path
       style="fill:none;stroke:#4d4d4d;stroke-width:158.74015748;stroke-linecap:round;stroke-linejoin:bevel;stroke-miterlimit:4;stroke-dasharray:none;paint-order:stroke fill markers"
       id="path1225"
       sodipodi:type="arc"
       sodipodi:cx="1527.5851"
       sodipodi:cy="1567.6586"
       sodipodi:rx="1280.6237"
       sodipodi:ry="1280.6237"
       sodipodi:start="0.18087057"
       sodipodi:end="2.6802304"
       sodipodi:arc-type="arc"
       d="M 2787.3185,1798.0248 A 1280.6237,1280.6237 0 0 1 1706.599,2835.7086 1280.6237,1280.6237 0 0 1 380.8546,2137.7517"
       sodipodi:open="true" />
    <path
       style="fill:#4d4d4d;fill-opacity:1;stroke:#4d4d4d;stroke-width:5.70813;stroke-linecap:round;stroke-linejoin:bevel;stroke-miterlimit:4;stroke-dasharray:none;stroke-opacity:1;paint-order:stroke fill markers"
       d="m 712.26181,2375.9711 c -11.01037,-9.8295 -18.01015,-28.1145 -31.51065,-82.3335 -20.7869,-83.4822 -46.7732,-166.0269 -65.57488,-208.2796 l -13.74022,-30.8887 -13.83953,16.8504 c -14.86802,18.0968 -78.67534,145.5005 -95.02736,189.7379 -11.20534,30.3111 -36.18187,54.5422 -56.21864,54.5422 -43.63505,0 -132.44922,-132.3282 -160.18378,-238.6665 -23.11546,-88.6175 -20.5947,-221.7861 6.17883,-326.4707 6.08136,-23.7672 10.35436,-43.913 9.49878,-44.7687 -3.50418,-3.5049 -106.17966,48.739 -159.33617,81.0673 -60.51771,36.804 -79.477259,41.3966 -97.302569,23.5712 -17.034101,-17.0343 -18.81272,-34.6259 -8.353196,-82.4995 21.954852,-100.4903 69.127487,-224.9184 135.595035,-357.668 19.88258,-39.709 34.97285,-73.3739 33.53298,-74.817 -1.43159,-1.4316 -29.37002,3.832 -62.06243,11.7104 -64.576431,15.5609 -79.376098,14.1971 -95.479817,-8.7942 -13.198536,-18.8388 -11.11123,-39.7162 8.726285,-87.3674 C 97.012073,1091.1569 207.3553,984.85232 346.94808,922.08861 c 23.04066,-10.35775 41.26112,-20.33113 40.49229,-22.15845 -0.75412,-1.80864 -27.93045,-24.57743 -60.35954,-50.54865 -59.98675,-48.03932 -66.66712,-57.83177 -59.35036,-86.98688 6.92161,-27.58374 62.52285,-42.90754 203.27225,-56.02698 118.63574,-11.05458 163.93627,-20.21764 208.74999,-42.23297 30.32309,-14.894 41.4984,-25.14233 78.12508,-71.64056 102.9465,-130.68195 129.31749,-161.00136 164.06839,-188.6228 68.60425,-54.5274 100.87112,-65.60094 123.94152,-42.53085 9.8033,9.80381 11.2318,18.71829 11.2318,70.19766 0,32.42938 1.0928,58.96197 2.4487,58.96197 1.3561,0 21.7285,-13.81655 45.2696,-30.7075 77.9631,-55.94029 171.7122,-95.21924 261.1263,-109.41623 49.8185,-7.91237 96.9266,-7.35109 108.7502,1.28078 7.4178,5.42562 22.4036,6.05867 61.4402,2.59985 119.5028,-10.59501 240.4006,13.77884 287.8521,58.03159 16.2614,15.16506 21.4645,13.66571 32.4295,-9.32927 23.3852,-49.03768 95.0264,-108.22956 180.8299,-149.39994 42.9643,-20.61738 49.023,-22.12836 63.9244,-15.95688 21.5177,8.91481 31.1334,20.48954 39.8026,47.91142 3.9074,12.35431 15.3576,38.97762 25.4439,59.16153 l 18.342,36.70209 60.314,-8.22139 c 182.372,-24.85206 257.3555,59.02237 219.0975,245.09435 l -9.525,46.33276 19.3469,23.86119 c 24.7885,30.57539 51.525,79.01775 60.4317,109.49934 3.8366,13.12715 9.1604,23.86902 11.8241,23.86902 2.6749,0 14.6262,-15.79477 26.577,-35.10068 32.9723,-53.26542 47.6103,-67.02893 69.0597,-64.93421 22.9313,2.22314 41.3822,28.01754 69.0411,96.46663 26.71,66.10214 45.5648,146.11861 53.7935,228.31655 3.6918,36.9961 8.3072,67.2663 10.2284,67.2663 1.9221,0 16.0927,-8.4248 31.4956,-18.7182 51.4644,-34.4076 101.9217,-59.9003 118.5493,-59.9003 20.6661,0 38.9145,12.5505 50.3228,34.6185 11.6007,22.4293 7.852,50.9741 -21.2648,161.9313 -25.2291,96.1354 -44.6829,144.4573 -74.5314,185.1153 -10.8927,14.838 -19.8037,32.3884 -19.8037,39.0004 0,13.0403 29.3323,74.5338 59.2938,124.3106 34.8376,57.8769 39.4565,167.4137 8.7039,206.4821 -29.8481,37.9304 -44.9869,51.5848 -57.1837,51.5848 -6.8835,0 -46.6029,-18.9521 -88.2682,-42.1164 -41.6673,-23.1641 -78.1995,-42.1204 -81.1834,-42.1204 -2.9769,0 -4.0088,5.686 -2.2614,12.6377 24.408,97.5288 26.6796,417.3233 3.1647,445.6497 -3.5789,4.2986 -16.5739,7.8185 -28.9059,7.8185 -25.7873,0 -35.8197,-9.1819 -91.414,-83.6452 -34.9535,-46.8185 -45.7227,-55.967 -36.1068,-30.6698 6.7368,17.712 -1.1679,46.4983 -16.6006,60.4614 -22.1356,20.034 -157.1921,50.1802 -266.4545,59.4708 -121.3748,10.3234 -251.4875,-8.4621 -341.5941,-49.3164 l -37.3727,-16.9476 -3.6554,14.8793 c -13.1262,53.3071 -92.8938,149.6487 -142.1616,171.6979 -38.2922,17.1362 -49.1472,10.1168 -83.3582,-53.8977 -15.8893,-29.7361 -39.0914,-69.0868 -51.5625,-87.4474 -23.9069,-35.2057 -79.561,-98.8025 -83.2417,-95.125 -3.6544,3.6552 14.7963,123.9754 20.6244,134.3296 19.5249,34.6972 -7.3052,75.6376 -54.6813,83.4336 -101.3867,16.6757 -245.1133,-6.1262 -344.1612,-54.606 -44.1242,-21.5976 -61.2751,-34.1031 -99.1902,-72.3226 l -45.83884,-46.2122 -27.16628,39.7989 c -55.60433,81.4707 -187.40518,194.5869 -226.7301,194.5869 -8.80506,0 -22.38005,-5.6852 -30.16522,-12.6332 z m 693.03059,-163.484 c 0,-1.1312 -7.2647,-18.1762 -16.1414,-37.9033 -23.3258,-51.8527 -34.437,-102.914 -34.1546,-156.9736 0.4524,-83.8711 13.7223,-117.5707 46.3707,-117.5707 29.9198,0 204.3942,151.7703 253.8237,220.8006 12.3539,17.2518 24.2797,31.4868 26.5028,31.6373 7.6263,0.5302 49.3126,-142.9495 60.0353,-206.6142 11.9333,-70.8377 23.3352,-90.7504 51.9501,-90.7504 12.4533,0 26.9553,11.156 68.4872,52.6891 112.02,112.0194 227.9544,172.2249 348.9763,181.2189 l 44.9272,3.3534 -28.7833,-30.1759 c -46.6411,-48.8989 -68.411,-96.1962 -80.7584,-175.4395 -7.7652,-49.852 -1.2058,-61.1695 43.5904,-74.9746 24.1244,-7.4427 51.3696,-9.9477 108.068,-9.9367 70.4154,0 79.255,1.2437 124.2042,17.2981 61.3396,21.9092 116.8163,58.7323 164.2717,109.0364 l 37.233,39.4562 v -43.6274 c 0,-90.7393 -29.3692,-217.9058 -64.8851,-281.5967 -7.5353,-13.5149 -13.6982,-29.1249 -13.6982,-34.6899 0,-15.7866 26.7319,-33.884 44.1956,-29.9163 39.3391,8.9336 138.2541,44.7011 185.5179,67.0893 29.0533,13.7602 54.052,23.7862 55.5564,22.2823 1.5061,-1.507 0,-17.0868 -3.693,-34.63 -11.0626,-55.0849 -65.1829,-113.3615 -140.1621,-150.9225 -32.5042,-16.2806 -37.7796,-23.5861 -32.4285,-44.9042 2.7499,-11.0173 14.6642,-19.299 55.36,-38.5367 61.0116,-28.8428 96.0142,-53.4009 107.347,-75.3221 12.1407,-23.4732 32.5432,-86.335 29.1334,-89.7488 -1.6204,-1.6201 -20.0784,4.6839 -40.9971,14.0241 -47.0755,21.0242 -116.3643,40.79 -142.9946,40.79 -33.4173,0 -35.4517,-6.9026 -26.9406,-91.5008 8.6435,-85.8717 9.9546,-168.548 3.6173,-228.86652 -6.0173,-57.42127 -10.0745,-62.76743 -29.336,-38.61594 -25.9412,32.53087 -127.9874,129.25386 -142.4599,135.02626 -16.2237,6.4728 -42.659,-2.5623 -47.9602,-16.3674 -1.9215,-4.9771 -0.5236,-32.6216 3.1277,-61.42637 8.6951,-69.09353 4.547,-200.78888 -7.012,-222.63835 l -8.5531,-16.16371 -17.9191,35.82015 c -9.8605,19.70161 -25.3456,48.66486 -34.4161,64.36118 -16.0879,27.83637 -16.5474,30.81694 -18.6871,120.73896 -2.3739,99.77834 -9.7511,143.60164 -38.0398,225.99534 -9.3937,27.3504 -16.2497,50.3865 -15.2442,51.1931 10.7835,8.6315 74.5752,32.5462 93.8695,35.1908 13.67,1.8841 29.5102,8.0632 35.199,13.7528 14.7329,14.7322 13.3678,45.5184 -2.8628,64.3762 -12.6448,14.6982 -15.6445,15.395 -71.5995,16.582 -150.425,3.2028 -244.8761,42.4971 -445.5788,185.4426 -21.1707,15.0826 -31.1775,18.9371 -42.1159,16.2248 -25.8842,-6.4206 -38.0735,-23.5836 -45.1266,-63.5588 -3.617,-20.5916 -7.5918,-40.591 -8.7904,-44.4457 -3.0511,-9.7808 -98.674,24.962 -150.7978,54.7802 -22.1964,12.701 -58.6867,39.3654 -81.09,59.2599 -26.9887,23.9592 -45.4697,36.1633 -54.7693,36.1633 -17.2143,0 -39.7985,-21.5892 -45.0166,-43.0357 -2.1104,-8.7605 -7.2877,-20.9117 -11.4577,-27.0041 -9.8798,-14.4226 -9.5708,-30.8394 1.3936,-74.5794 4.9397,-19.7057 7.7168,-37.0932 6.1684,-38.6421 -7.8075,-7.8066 -156.8952,95.9842 -244.3152,170.0853 -28.4055,24.0801 -39.3923,30.0252 -55.4881,30.0252 -18.0631,0 -25.12,-5.3346 -70.5781,-53.3505 -27.784,-29.3412 -52.3379,-53.3497 -54.5727,-53.3497 -2.2232,0 -8.7002,10.2943 -14.3708,22.8705 -11.1818,24.796 -27.0669,38.9031 -43.81075,38.9031 -5.83333,0 -33.99738,-8.7597 -62.58264,-19.4682 -67.81294,-25.399 -123.48561,-40.5905 -215.93246,-58.9322 -82.30366,-16.3258 -91.1504,-21.6571 -81.40301,-49.0607 4.60408,-12.9497 3.35336,-19.0913 -7.15489,-34.656 -13.42141,-19.9014 -12.34756,-30.6134 2.78776,-27.7002 4.96245,0.9417 15.07495,-4.3144 22.47569,-11.7142 12.79145,-12.7918 15.97099,-13.2931 64.85756,-10.2073 42.54279,2.6751 121.39099,18.734 173.93658,35.4133 10.50825,3.3163 10.27492,1.8464 -3.35335,-21.3891 -45.22822,-77.172 -74.3042,-147.9084 -94.16106,-229.0777 -10.35313,-42.3087 -13.06611,-69.0372 -13.11914,-129.1597 0,-68.17447 1.46959,-80.28014 15.29749,-120.12835 28.22745,-81.41809 77.75991,-138.35306 151.72852,-174.40318 32.3727,-15.77971 36.61837,-19.39663 26.52429,-22.60317 -21.33227,-6.77044 -29.22928,-27.12023 -32.62806,-84.05899 -1.77121,-29.52452 -4.81188,-53.67978 -6.77871,-53.67978 -6.6724,0 -80.52106,75.65696 -101.4091,103.89275 -11.42396,15.44038 -33.12342,49.55766 -48.21312,75.8116 -15.09332,26.25393 -30.01805,49.5879 -33.16757,51.85982 -10.57629,7.61871 -25.28583,4.38939 -37.99818,-8.33795 -11.73691,-11.75191 -18.32253,-12.76169 -94.06294,-14.40421 -44.79535,-0.97967 -87.35531,0.41449 -94.57519,3.12714 -12.3776,4.60444 -10.37982,7.24567 34.76929,46.0047 50.52569,43.3748 54.17303,48.28022 54.17303,72.86526 0,20.40641 -15.49707,33.75915 -71.8325,61.8745 -74.99089,37.42926 -164.15116,92.33706 -226.11641,139.25376 -73.5737,55.7065 -75.20087,57.0706 -71.96861,60.3031 1.46992,1.5073 38.86145,-1.0925 83.0498,-5.7382 44.19236,-4.6419 85.18585,-6.9024 91.09738,-5.0263 15.61048,4.9547 28.94083,27.8517 24.44926,41.996 -2.07198,6.5518 -14.75031,25.3836 -28.16006,41.845 -74.01851,90.8751 -142.07584,191.769 -178.85702,265.1545 -19.63396,39.1701 -49.49384,114.8835 -46.49087,117.8862 1.31908,1.3188 23.98974,-9.9584 50.36414,-25.0816 71.95328,-41.2584 164.64839,-81.2376 178.30307,-76.9053 6.31496,1.9972 15.50474,12.0719 20.41751,22.3765 8.37957,17.5769 7.9688,24.5635 -6.66134,113.2371 -26.71405,161.9103 -24.79996,325.3034 4.63781,396.4171 l 7.52797,18.183 24.02008,-47.7339 c 48.07666,-95.5466 128.07444,-204.4212 155.20234,-211.2293 26.49855,-6.6507 40.85799,5.9796 64.16536,56.4298 30.48922,65.9887 59.17318,154.4378 70.35952,216.9413 5.21443,29.1401 10.42946,56.3174 11.58241,60.3946 3.014,10.6285 62.43613,-37.4031 111.29964,-89.9571 22.11402,-23.7786 56.50594,-68.4792 76.43381,-99.337 40.44668,-62.6278 55.7785,-74.0779 83.68987,-62.5147 13.5227,5.5991 23.0095,19.9319 51.5619,77.8951 30.9304,62.7975 40.2442,76.2747 80.2988,116.2204 36.8602,36.7626 55.2623,50.0706 98.6603,71.3694 55.7251,27.343 151.6238,57.1196 151.6238,47.0741 z m -216.9861,-795.5227 c 15.0142,-18.5748 47.767,-50.1529 72.7859,-70.1712 83.5878,-66.8781 173.7818,-101.3117 281.7844,-107.5776 50.3985,-2.9389 57.5452,-2.11 69.7269,7.8144 20.3084,16.567 17.5506,38.8458 -10.2634,82.8876 -25.5267,40.4132 -48.5404,89.3148 -40.5897,86.2367 21.0159,-8.1344 124.1997,-64.5612 124.2573,-67.9522 0,-8.8652 -61.9543,-127.042 -97.1331,-184.8547 -112.575,-185.00185 -238.818,-299.3882 -367.1069,-332.63147 -95.5739,-24.76557 -215.269,2.11003 -274.90934,61.76538 -76.06719,76.0678 -89.89844,214.08559 -38.03224,379.56259 16.88391,53.8719 35.77206,100.1254 40.88067,100.1141 1.92208,0 12.13302,-19.1593 22.65567,-42.5684 21.31477,-47.4064 37.01844,-61.8294 60.84664,-55.8803 23.5103,5.8669 33.6758,17.878 56.9077,67.2515 22.7507,48.3405 60.1907,109.8383 66.8523,109.8007 2.2229,0 16.3226,-15.2182 31.3372,-33.7971 z m 803.2537,-64.184 c 49.4215,-37.2747 96.9867,-66.558 136.1983,-83.8523 20.0924,-8.8654 25.6353,-15.4327 40.1342,-47.5867 37.3651,-82.85 52.9517,-158.2926 52.9597,-256.31514 0,-111.55659 -20.8773,-178.37087 -73.268,-234.37894 -33.7829,-36.11806 -62.256,-50.25835 -107.7214,-53.49487 -92.3414,-6.57857 -214.2888,65.08091 -375.3207,220.53952 L 1600,960 l 28.149,41.8224 c 60.4956,89.8844 102.4579,182.8582 122.7923,272.0678 5.6285,24.7092 10.8579,45.8088 11.616,46.8864 0.7543,1.0931 23.6615,-3.0895 50.8951,-9.2686 85.2276,-19.3287 94.5522,-19.7472 111.7154,-4.9849 16.3064,14.0278 19.2038,30.7789 11.6909,67.5975 -5.1243,25.1163 -8.7867,26.5442 54.7013,-21.3402 z M 1585.2385,862.53866 c 53.1554,-66.40713 115.7721,-133.60193 156.265,-167.68911 21.6078,-18.187 39.4554,-35.33798 39.6636,-38.10725 0.4144,-5.42942 -18.508,-29.81457 -80.7096,-104.06636 -45.8914,-54.78337 -97.8724,-95.8673 -121.2888,-95.8673 -15.0493,0 -39.1017,21.47633 -39.1017,34.91214 0,9.46107 -32.0341,78.52451 -67.8089,146.19403 -28.6208,54.13536 -37.1359,65.98134 -47.4292,65.98134 -23.319,0 -26.1784,-10.90402 -21.9248,-83.64845 5.7874,-98.88561 -5.8551,-131.93668 -48.9326,-138.92972 -39.374,-6.39004 -122.6637,34.96886 -224.8734,111.66202 -51.5318,38.66494 -141.01604,116.75634 -137.64771,120.12463 1.0172,1.01712 19.37741,-1.84635 40.78631,-6.38271 51.2108,-10.84753 138.2286,-10.63661 192.1828,0.45283 103.2034,21.24274 223.9237,89.98213 304.1141,173.1785 10.643,11.04351 20.9296,20.0784 22.8584,20.0784 1.9218,0 17.1585,-17.06038 33.8465,-37.90741 z m 740.0188,-95.46457 c 19.7286,-51.01179 35.5601,-272.34667 20.5535,-287.34986 -3.8879,-3.88829 -22.4223,-2.29852 -57.7829,4.94343 -55.1337,11.2921 -92.7062,26.68341 -118.8473,48.68332 -8.7563,7.3661 -23.5525,16.60463 -32.8853,20.52694 l -16.9662,7.13251 35.8811,18.60519 c 49.1769,25.49674 101.2855,81.62161 131.1151,141.2166 12.701,25.37618 23.0929,49.63693 23.0929,53.90962 0,13.20964 9.5547,8.58282 15.8391,-7.66775 z M 2040.7939,550.27228 h 54.2781 l -15.734,-31.1897 c -8.6549,-17.15857 -18.9481,-41.93185 -22.8777,-55.05865 -3.9304,-13.12681 -8.8512,-23.86896 -10.9382,-23.86896 -6.3106,0 -68.9463,44.85174 -89.0258,63.74722 -20.5339,19.32496 -51.407,61.41099 -51.407,70.07688 0,2.97661 18.3193,-1.01714 40.7106,-8.93351 32.6663,-11.53671 51.4456,-14.41922 94.994,-14.5774 z m -245.3813,-31.93585 c -20.2823,-29.26793 -44.0224,-49.25227 -74.7078,-62.88796 -35.0743,-15.5835 -34.6292,-8.58679 0.9428,15.03356 16.9051,11.22037 42.9783,32.61761 57.9439,47.54938 14.9661,14.93148 28.2171,26.26128 29.4493,25.18008 1.2428,-1.09285 -4.906,-12.27552 -13.636,-24.87506 z"
       id="path5863" />
  </g>
</svg>
